<svg xmlns="http://www.w3.org/2000/svg" viewBox="0 0 150 150" xmlns:v="https://vecta.io/nano"><circle cx="75" cy="75" r="74.75" fill="#fff"/><g fill="#ff720e"><circle cx="68.43" cy="57.74" r="16.55"/><path d="M99.38 25.75l-15.34-4.19a58.61 58.61 0 0 0-30.96.02l-16.29 4.47A16.04 16.04 0 0 0 25 41.52v35.73c0 5.86 2.14 11.52 6.03 15.91l26.8 30.27c5.36 6.05 14.67 6.45 20.53.88l10.8-10.27L82 107.7l4.25-5.19 7.76 6.9 9.71-9.23a23.98 23.98 0 0 0 7.46-17.39V41.22c.01-7.23-4.83-13.56-11.8-15.47zm-1.1 58.05c-.08-1.6-.39-3.19-.96-4.72-3.31-8.95-13.04-6.03-17.13-2.72s-10.12 2.72-10.12 2.72h-3.05s-6.03.58-10.12-2.72c-4.09-3.31-13.82-6.23-17.13 2.72a36.11 36.11 0 0 0-1.25 4.16 33.61 33.61 0 0 1-3.82-15.61c0-18.69 15.15-33.83 33.83-33.83 18.69 0 33.83 15.15 33.83 33.83a33.32 33.32 0 0 1-4.08 16.17z"/></g><path d="M99.84 80.2c-13.89 0-25.16 11.26-25.16 25.16s11.26 25.16 25.16 25.16S125 119.26 125 105.36 113.74 80.2 99.84 80.2zm-3.62 40.09L82 107.7l4.25-5.19 9.15 8.13 17.98-18.3 4.9 4.74-22.06 23.21z" fill="#5fb769"/></svg>