<svg xmlns="http://www.w3.org/2000/svg" viewBox="0 0 150 150" xmlns:v="https://vecta.io/nano"><circle cx="75" cy="79.33" r="74.75" fill="#fff"/><path d="M75 28.25C49.4 28.25 28.66 49 28.66 74.6c0 11.96 4.53 22.86 11.97 31.08" fill="none" stroke="#ff720e" stroke-width="7.791" stroke-miterlimit="10"/><path d="M73.81 17.07v25.77l20.61-13.4z" fill="#ff720e"/><path d="M75 120.94c25.6 0 46.34-20.75 46.34-46.34 0-13.41-5.7-25.5-14.81-33.96" fill="none" stroke="#ff720e" stroke-width="7.791" stroke-miterlimit="10"/><path d="M74.84 132.93v-25.77l-20.62 13.4z" fill="#ff720e"/><path d="M44.99 89.95v-.32c0-6.17 2.69-10.7 11.04-15.92 5.33-3.32 6.75-4.22 6.75-6.79 0-2.2-1.16-4.05-4.78-4.05-3.52 0-4.8 2.12-5.25 5.02h-7.62c.48-6.55 5.33-11.08 13.13-11.08 7.59 0 12.37 4.21 12.37 10.06 0 4.85-2.02 7.19-8.71 11.07-3.85 2.23-6.39 4.05-7.35 5.82h17.39L71 89.95H44.99zm48.19 0v-7.06H76.63v-6.46l14.94-18.94h8.97V76.6h4.51l-.62 6.29h-3.89v7.06h-7.36zm0-18.42l.1-7.02c-1.36 2.03-4.21 5.98-8.92 12.09h8.82v-5.07z" fill="#5fb769"/></svg>