<svg xmlns="http://www.w3.org/2000/svg" viewBox="0 0 73.4 73.4" style="enable-background:new 0 0 73.4 73.4" xml:space="preserve"><linearGradient id="a" gradientUnits="userSpaceOnUse" x1="0" y1="36.722" x2="73.445" y2="36.722"><stop offset="0" style="stop-color:#ff7171"/><stop offset=".14" style="stop-color:#ff7676"/><stop offset=".316" style="stop-color:#ff8686"/><stop offset=".512" style="stop-color:#ffa0a0"/><stop offset=".723" style="stop-color:#ffc4c4"/><stop offset=".943" style="stop-color:#fff2f2"/><stop offset="1" style="stop-color:#fff"/></linearGradient><circle style="fill:url(#a)" cx="36.7" cy="36.7" r="36.7"/><circle style="fill:none;stroke:#333232;stroke-width:1.5;stroke-linecap:round;stroke-linejoin:round;stroke-miterlimit:10" cx="36.3" cy="42.1" r="10"/><text transform="translate(31.453 48.08)" style="fill:#333232;font-family:'MyriadPro-Regular';font-size:18.0345px">$</text><path style="fill:none;stroke:#333232;stroke-width:1.5;stroke-linecap:round;stroke-linejoin:round;stroke-miterlimit:10" d="M24.6 11.1s4.6 12.2 7.1 12.9c2.4.6 9.5.9 10.6-1.2 1.1-2.1 5.1-11 5.1-11s-6.4 4-8.3 3.2c-2-.9-.9-2.6-3.1-2.2-2.2.3-9 1.1-11.4-1.7z"/><path style="fill:none;stroke:#333232;stroke-width:1.5;stroke-linecap:round;stroke-linejoin:round;stroke-miterlimit:10" d="M42.3 22.8S56 29.1 57.1 48.2c.3 5.5-3.2 10.5-8.5 12.1-6.3 2-15.5 3.5-24.5 0-4.1-1.6-7.1-5.4-7.6-9.9-.8-7.5.2-19.8 13.4-28 0 0 1.1 1.5 1.7 1.6.6.1 5.4 1.1 9-.1.1 0 1.4-.4 1.7-1.1z"/></svg>