<svg xmlns="http://www.w3.org/2000/svg" viewBox="0 0 73.4 73.4" style="enable-background:new 0 0 73.4 73.4" xml:space="preserve"><linearGradient id="a" gradientUnits="userSpaceOnUse" x1="15.752" y1="10.85" x2="77.436" y2="86.953"><stop offset=".124" style="stop-color:#f3825f;stop-opacity:.8"/><stop offset=".238" style="stop-color:#f38664;stop-opacity:.7611"/><stop offset=".382" style="stop-color:#f59374;stop-opacity:.7118"/><stop offset=".542" style="stop-color:#f7a78e;stop-opacity:.657"/><stop offset=".714" style="stop-color:#f9c3b2;stop-opacity:.5982"/><stop offset=".893" style="stop-color:#fde7e0;stop-opacity:.5368"/><stop offset="1" style="stop-color:#fff;stop-opacity:.5"/></linearGradient><circle style="fill:url(#a)" cx="36.7" cy="36.7" r="36.7"/><path style="fill:none;stroke:#333232;stroke-width:1.5;stroke-miterlimit:10" d="M36.7 12.1c-13.5 0-24.4 10.9-24.4 24.4 0 6.3 2.4 12.1 6.3 16.4"/><path style="fill:#333232" d="M36.7 6.2v13.6l10.9-7.1z"/><path style="fill:none;stroke:#333232;stroke-width:1.5;stroke-miterlimit:10" d="M36.7 60.9c13.5 0 24.4-10.9 24.4-24.4 0-7.1-3-13.4-7.8-17.9"/><path style="fill:#333232" d="M36.7 67.3V53.7l-10.8 7zM20.9 44.6v-.2c0-3.3 1.4-5.6 5.8-8.4 2.8-1.8 3.6-2.2 3.6-3.6 0-1.2-.6-2.1-2.5-2.1s-2.5 1.1-2.8 2.6h-4c.3-3.5 2.8-5.8 6.9-5.8 4 0 6.5 2.2 6.5 5.3 0 2.6-1.1 3.8-4.6 5.8-2 1.2-3.4 2.1-3.9 3.1h9.2l-.5 3.3H20.9zM46.3 44.6v-3.7h-8.7v-3.4l7.9-10h4.7v10.1h2.4l-.3 3.3h-2.1v3.7h-3.9zm0-9.7c0-1 0-2.8.1-3.7-.7 1.1-2.2 3.2-4.7 6.4h4.6v-2.7z"/></svg>