<svg xmlns="http://www.w3.org/2000/svg" viewBox="0 0 73.4 73.4" style="enable-background:new 0 0 73.4 73.4" xml:space="preserve"><linearGradient id="a" gradientUnits="userSpaceOnUse" x1="0" y1="36.722" x2="73.445" y2="36.722"><stop offset="0" style="stop-color:#7ecfc0"/><stop offset=".148" style="stop-color:#83d1c3"/><stop offset=".335" style="stop-color:#93d7ca"/><stop offset=".543" style="stop-color:#ade0d7"/><stop offset=".766" style="stop-color:#d1eee9"/><stop offset="1" style="stop-color:#fff"/></linearGradient><circle style="fill:url(#a)" cx="36.7" cy="36.7" r="36.7"/><path style="fill:none;stroke:#333232;stroke-width:1.5;stroke-linecap:round;stroke-linejoin:round;stroke-miterlimit:10" d="M53.3 33.4c0-9.6-8-17.3-17.8-16.8-8.7.5-15.7 7.7-15.9 16.4-.1 4.4 1.5 8.4 4.1 11.5 0 0 5.6 6.3 6.5 13h12.4c.6-4.7 3.5-9.1 5.2-11.4.4-.6.9-1.1 1.4-1.6 2.5-3.1 4.1-6.9 4.1-11.1z"/><path style="fill:none;stroke:#333232;stroke-miterlimit:10" d="M33.2 57.4s-1.9-18-4.1-18.3c-.1 0-.4-.1-.4.6 0 1.5.5 6.3 3.4 1.6 3.5-5.6 1.1-8.6.1-6.9-1.1 1.6.1 9.2 3.2 8 3.2-1.2 4.3-9.1 2.8-8.5-1.4.6-1.5 7.5 2.2 7.7 3.7.2 3.7-7.2 2.8-6.7-.9.5-1.3 8.4.9 7.5 2.2-.9 2.5-3.1 1.5-3.4-1.4-.4-5.9 18.4-5.9 18.4"/><path style="fill:none;stroke:#333232;stroke-width:1.5;stroke-miterlimit:10" d="M39.5 65.3h-6.2c-1.3 0-2.4-1-2.5-2.3l-.6-5.6h12.4l-.6 5.7c-.1 1.2-1.2 2.2-2.5 2.2z"/><path style="fill:none;stroke:#333232;stroke-miterlimit:10" d="M31.7 60.1h9.4M31.7 61.8h9.4"/><path style="fill:#333232" d="m56.2 30.2 5.5-.6c.6-.1 1 .3 1.1.9.1.6-.3 1-.9 1.1h-.2l-5.5-.6c-.2 0-.4-.2-.4-.5 0-.1.2-.3.4-.3zM51.7 17l3.8-4c.4-.4 1-.4 1.4 0 .4.4.4 1 0 1.4 0 0-.1.1-.2.1l-4.6 3.1c-.2.1-.5.1-.6-.1 0-.1.1-.4.2-.5zM16.6 28l-5.5.6c-.6.1-1-.3-1.1-.9-.1-.6.3-1 .9-1.1h.2l5.5.6c.2 0 .4.2.4.5 0 .1-.1.2-.4.3zM22.8 16.5l-4.6-3.1c-.4-.4-.5-1-.2-1.4.3-.5.9-.6 1.4-.3.1 0 .1.1.2.1l3.8 4c.2.2.2.5 0 .6-.2.2-.4.2-.6.1zM36.6 11.9 36 6.4c-.1-.6.3-1 .9-1.1.6-.1 1 .3 1.1.9v.2l-.5 5.5c0 .2-.2.4-.5.4-.2 0-.4-.2-.4-.4z"/></svg>