<?xml version="1.0" encoding="utf-8"?>
<!-- Generator: Adobe Illustrator 22.1.0, SVG Export Plug-In . SVG Version: 6.00 Build 0)  -->
<svg version="1.1" id="Layer_1" xmlns="http://www.w3.org/2000/svg" xmlns:xlink="http://www.w3.org/1999/xlink" x="0px" y="0px"
	 viewBox="0 0 50 50" style="enable-background:new 0 0 50 50;" xml:space="preserve">
<circle style="fill:#FE830C;" cx="33.71" cy="18.04" r="16.14"/>
<circle style="fill:#EF0FCF;" cx="12.43" cy="27.33" r="12.28"/>
<circle style="fill:#DA0015;" cx="28.49" cy="37.18" r="10.92"/>
<circle style="fill:#FE830C;" cx="45.69" cy="36.16" r="3.34"/>
<circle style="fill:#EF0FCF;" cx="13.67" cy="8.44" r="3.34"/>
<circle style="fill:#DA0015;" cx="15.54" cy="43.46" r="1.58"/>
<g>
	<g>
		<path style="fill:#FFFFFF;" d="M27.47,35.2h-1.03v1.03h-0.38V35.2h-1.03v-0.39h1.03v-1.03h0.38v1.03h1.03V35.2z"/>
		<path style="fill:#FFFFFF;" d="M28.83,36.17h-0.39v-1.22c0-0.41-0.06-0.82-0.19-1.24l0.38-0.12l0.14,0.53
			c0,0.01,0.01,0.06,0.02,0.14c0.03,0.24,0.04,0.47,0.04,0.69V36.17z"/>
		<path style="fill:#FFFFFF;" d="M31.47,35.02c0,0.17-0.07,0.33-0.22,0.46c-0.15,0.13-0.31,0.2-0.49,0.2c-0.18,0-0.35-0.07-0.49-0.2
			c-0.15-0.13-0.22-0.29-0.22-0.47c0-0.19,0.07-0.35,0.22-0.49c0.15-0.14,0.31-0.22,0.5-0.22c0.18,0,0.34,0.08,0.48,0.23
			C31.4,34.68,31.47,34.84,31.47,35.02z M31.15,35.01c0-0.1-0.04-0.2-0.12-0.27c-0.08-0.08-0.17-0.12-0.28-0.12
			c-0.1,0-0.2,0.04-0.27,0.12c-0.08,0.08-0.12,0.18-0.12,0.28c0,0.1,0.04,0.19,0.13,0.26c0.08,0.07,0.18,0.1,0.28,0.1
			c0.1,0,0.19-0.04,0.26-0.11C31.11,35.2,31.15,35.11,31.15,35.01z"/>
	</g>
</g>
<g>
	<g>
		<path style="fill:#FFFFFF;" d="M31.29,20.71c0,0.18-0.05,0.32-0.15,0.43c-0.1,0.12-0.24,0.17-0.42,0.17h-0.35
			c-0.15,0-0.28-0.06-0.39-0.18c-0.1-0.11-0.15-0.25-0.15-0.4v-0.47h0.22v0.5c0,0.1,0.04,0.17,0.11,0.24
			c0.07,0.06,0.15,0.09,0.25,0.09h0.29c0.1,0,0.18-0.03,0.25-0.09c0.07-0.06,0.1-0.14,0.1-0.24v-0.72h0.22V20.71z M30.66,19.99
			c0,0.04-0.02,0.08-0.05,0.11c-0.03,0.03-0.07,0.04-0.11,0.04c-0.11,0-0.17-0.05-0.17-0.15c0-0.09,0.05-0.13,0.16-0.13
			C30.6,19.85,30.66,19.9,30.66,19.99z"/>
		<path style="fill:#FFFFFF;" d="M32.05,20.75c-0.19,0-0.32-0.04-0.4-0.11c-0.05-0.05-0.08-0.13-0.08-0.23v-1.06h0.22v0.96
			c0,0.1,0.02,0.17,0.05,0.19c0.02,0.01,0.09,0.02,0.2,0.03V20.75z"/>
		<path style="fill:#FFFFFF;" d="M32.76,20.38c0,0.1-0.03,0.18-0.09,0.25c-0.06,0.08-0.14,0.11-0.23,0.11h-0.48v-0.22h0.41
			c0.06,0,0.11-0.01,0.13-0.04c0.02-0.03,0.04-0.07,0.04-0.13v-0.31h0.22V20.38z M32.29,21.18c0,0.04-0.01,0.07-0.04,0.09
			c-0.03,0.02-0.06,0.04-0.1,0.04c-0.04,0-0.08-0.01-0.11-0.03c-0.03-0.03-0.05-0.06-0.05-0.1c0-0.08,0.05-0.12,0.14-0.12
			C32.24,21.05,32.29,21.09,32.29,21.18z M32.72,21.18c0,0.04-0.01,0.07-0.04,0.09c-0.03,0.02-0.06,0.04-0.1,0.04
			c-0.04,0-0.08-0.01-0.11-0.03c-0.03-0.03-0.05-0.06-0.05-0.1c0-0.08,0.05-0.12,0.14-0.12C32.67,21.05,32.72,21.09,32.72,21.18z"/>
		<path style="fill:#FFFFFF;" d="M34.03,20.75c-0.11,0-0.19-0.04-0.24-0.11c0,0.19-0.05,0.34-0.14,0.47
			c-0.1,0.14-0.25,0.21-0.43,0.21h-0.29l-0.04-0.22h0.31c0.1,0,0.18-0.03,0.25-0.09c0.07-0.06,0.11-0.14,0.11-0.24v-0.72h0.22v0.32
			c0,0.1,0.08,0.15,0.24,0.16V20.75z"/>
		<path style="fill:#FFFFFF;" d="M34.97,20.75c-0.09,0-0.16,0-0.21-0.01c-0.04-0.02-0.08-0.04-0.12-0.08
			c-0.07,0.06-0.14,0.09-0.21,0.09h-0.48v-0.22h0.42c0.06,0,0.11-0.01,0.13-0.04c0.02-0.03,0.04-0.07,0.04-0.13v-0.31h0.23v0.31
			c0,0.07,0.02,0.12,0.05,0.15c0.03,0.02,0.08,0.03,0.16,0.03V20.75z M34.47,19.67c0,0.04-0.01,0.07-0.04,0.1
			c-0.03,0.02-0.06,0.04-0.1,0.04c-0.11,0-0.16-0.04-0.16-0.13c0-0.08,0.05-0.12,0.14-0.12C34.42,19.54,34.47,19.58,34.47,19.67z
			 M34.9,19.67c0,0.04-0.01,0.07-0.04,0.1c-0.03,0.02-0.06,0.04-0.1,0.04c-0.11,0-0.16-0.04-0.16-0.13c0-0.08,0.05-0.12,0.14-0.12
			C34.85,19.54,34.9,19.58,34.9,19.67z"/>
		<path style="fill:#FFFFFF;" d="M36.91,20.75h-0.09l-0.08-0.01c-0.06-0.01-0.11-0.05-0.14-0.11c-0.07,0.1-0.15,0.15-0.26,0.15
			c-0.11,0-0.21-0.05-0.31-0.15c-0.09,0.1-0.2,0.15-0.32,0.15c-0.12,0-0.22-0.05-0.3-0.16c-0.06,0.06-0.14,0.11-0.25,0.12
			c-0.05,0.01-0.15,0.01-0.29,0.01v-0.22h0.21c0.08,0,0.13-0.01,0.15-0.03c0.04-0.03,0.06-0.09,0.06-0.17v-0.29h0.22v0.33
			c0,0.05,0.02,0.1,0.06,0.13c0.04,0.03,0.08,0.05,0.14,0.05c0.1,0,0.15-0.05,0.15-0.14v-0.37h0.22v0.33c0,0.05,0.02,0.1,0.06,0.13
			c0.04,0.03,0.08,0.05,0.14,0.05c0.1,0,0.16-0.05,0.16-0.14v-0.37h0.22v0.35c0,0.09,0.09,0.14,0.26,0.14V20.75z M35.81,19.68
			c0,0.04-0.01,0.07-0.04,0.1c-0.03,0.03-0.06,0.04-0.1,0.04c-0.04,0-0.08-0.01-0.11-0.04c-0.03-0.03-0.05-0.06-0.05-0.1
			c0-0.08,0.05-0.12,0.14-0.12C35.76,19.56,35.81,19.6,35.81,19.68z M35.89,19.5c-0.04,0-0.08-0.01-0.11-0.04
			c-0.03-0.03-0.05-0.06-0.05-0.1c0-0.08,0.05-0.12,0.15-0.12c0.04,0,0.07,0.01,0.1,0.03c0.03,0.02,0.05,0.05,0.05,0.09
			c0,0.04-0.01,0.08-0.04,0.1C35.97,19.49,35.93,19.5,35.89,19.5z M36.25,19.68c0,0.04-0.01,0.07-0.04,0.1
			c-0.03,0.03-0.06,0.04-0.1,0.04c-0.04,0-0.08-0.01-0.11-0.04c-0.03-0.03-0.05-0.06-0.05-0.1c0-0.08,0.05-0.12,0.14-0.12
			C36.2,19.56,36.25,19.6,36.25,19.68z"/>
		<path style="fill:#FFFFFF;" d="M37.85,20.32c0,0.13-0.03,0.23-0.1,0.32c-0.07,0.09-0.17,0.14-0.29,0.14
			c-0.1,0-0.18-0.03-0.25-0.08c-0.07,0.03-0.2,0.05-0.38,0.05v-0.22c0.13,0,0.2-0.01,0.22-0.04c0.01-0.01,0.01-0.07,0.01-0.17
			c0.01-0.31,0.14-0.46,0.4-0.46c0.12,0,0.22,0.05,0.29,0.15C37.82,20.08,37.85,20.19,37.85,20.32z M37.65,20.31
			c0-0.16-0.06-0.24-0.19-0.24c-0.13,0-0.2,0.08-0.2,0.25c0,0.16,0.07,0.23,0.2,0.23C37.59,20.55,37.65,20.47,37.65,20.31z"/>
	</g>
</g>
<g>
	<g>
		<path style="fill:#FFFFFF;" d="M25.52,39.97c-0.09,0-0.16-0.01-0.2-0.03c-0.05-0.02-0.1-0.07-0.14-0.14
			c-0.05,0.12-0.14,0.18-0.28,0.18c-0.12,0-0.22-0.04-0.3-0.12c-0.08-0.08-0.11-0.18-0.11-0.3V39.3c-0.07,0-0.13,0.02-0.17,0.06
			c-0.05,0.04-0.08,0.1-0.08,0.16v1.02h-0.22v-1c0-0.15,0.04-0.26,0.11-0.34c0.08-0.09,0.19-0.13,0.33-0.13h0.46
			c0.24,0,0.36,0.18,0.36,0.53c0,0.1,0.08,0.15,0.25,0.15V39.97z M25.05,39.56c0-0.12-0.01-0.19-0.04-0.21
			c-0.03-0.03-0.14-0.05-0.31-0.05v0.32c0,0.05,0.02,0.09,0.06,0.11c0.03,0.03,0.08,0.04,0.12,0.04
			C24.99,39.76,25.05,39.7,25.05,39.56z"/>
		<path style="fill:#FFFFFF;" d="M26.43,39.97c-0.09,0-0.16,0-0.21-0.01c-0.04-0.01-0.07-0.04-0.11-0.08
			c-0.07,0.06-0.14,0.09-0.21,0.09h-0.48v-0.22h0.42c0.06,0,0.11-0.01,0.13-0.04c0.02-0.03,0.04-0.07,0.04-0.13v-0.31h0.22v0.31
			c0,0.07,0.02,0.12,0.05,0.15c0.03,0.02,0.08,0.03,0.16,0.03V39.97z M25.8,40.4c0,0.04-0.01,0.07-0.04,0.09s-0.06,0.04-0.1,0.04
			c-0.04,0-0.08-0.01-0.11-0.04c-0.03-0.03-0.05-0.06-0.05-0.1c0-0.08,0.05-0.12,0.14-0.12C25.74,40.28,25.8,40.32,25.8,40.4z
			 M26.23,40.4c0,0.04-0.01,0.07-0.04,0.09c-0.03,0.03-0.06,0.04-0.1,0.04c-0.04,0-0.08-0.01-0.11-0.04
			c-0.03-0.03-0.05-0.06-0.05-0.1c0-0.08,0.05-0.12,0.14-0.12C26.18,40.28,26.23,40.32,26.23,40.4z"/>
		<path style="fill:#FFFFFF;" d="M27.14,39.61c0,0.1-0.03,0.18-0.09,0.25c-0.06,0.08-0.14,0.11-0.23,0.11h-0.48v-0.22h0.41
			c0.06,0,0.11-0.01,0.13-0.04c0.02-0.03,0.04-0.07,0.04-0.13v-0.31h0.22V39.61z M26.84,38.9c0,0.04-0.01,0.07-0.04,0.1
			c-0.03,0.03-0.06,0.04-0.1,0.04c-0.04,0-0.08-0.01-0.11-0.03c-0.03-0.03-0.05-0.06-0.05-0.1c0-0.08,0.05-0.12,0.14-0.12
			C26.78,38.78,26.84,38.82,26.84,38.9z M27.27,38.9c0,0.04-0.01,0.07-0.04,0.1c-0.03,0.03-0.06,0.04-0.1,0.04
			c-0.04,0-0.08-0.01-0.11-0.03c-0.03-0.03-0.05-0.06-0.05-0.1c0-0.08,0.05-0.12,0.14-0.12C27.22,38.78,27.27,38.82,27.27,38.9z"/>
		<path style="fill:#FFFFFF;" d="M29.35,39.96c0,0.22-0.08,0.38-0.24,0.49c-0.09,0.06-0.2,0.09-0.31,0.09h-0.35
			c-0.15,0-0.28-0.06-0.38-0.18c-0.1-0.11-0.15-0.25-0.15-0.4V39.5h0.21v0.49c0,0.1,0.04,0.18,0.11,0.24
			c0.07,0.06,0.16,0.09,0.26,0.09h0.29c0.09,0,0.17-0.03,0.24-0.09c0.07-0.06,0.11-0.13,0.11-0.22c0-0.07-0.05-0.12-0.15-0.15
			c-0.03-0.01-0.05-0.01-0.06-0.01h-0.31v-0.39c0-0.12,0.04-0.21,0.11-0.29c0.07-0.08,0.17-0.11,0.29-0.11h0.27l0.01,0.21h-0.27
			c-0.08,0-0.14,0.04-0.17,0.11c-0.01,0.04-0.02,0.12-0.03,0.26c0.18,0,0.3,0.01,0.35,0.03C29.29,39.73,29.35,39.82,29.35,39.96z"/>
		<path style="fill:#FFFFFF;" d="M30.06,39.97c-0.19,0-0.32-0.04-0.4-0.11c-0.05-0.05-0.08-0.13-0.08-0.23v-1.06h0.22v0.96
			c0,0.1,0.02,0.17,0.05,0.19c0.02,0.01,0.09,0.02,0.2,0.03V39.97z"/>
		<path style="fill:#FFFFFF;" d="M32,39.97h-1.14c-0.15,0-0.26-0.06-0.32-0.18c-0.09,0.12-0.19,0.18-0.3,0.18h-0.27v-0.22h0.25
			c0.1,0,0.16-0.05,0.16-0.16v-0.32h0.22v0.29c0,0.13,0.07,0.19,0.22,0.19c0.18-0.45,0.39-0.67,0.62-0.67
			c0.06,0,0.12,0.02,0.17,0.05c0.14,0.09,0.21,0.22,0.21,0.41c0,0.07-0.01,0.14-0.03,0.21H32V39.97z M31.3,38.64
			c0,0.04-0.02,0.08-0.05,0.11c-0.03,0.03-0.07,0.05-0.11,0.05c-0.11,0-0.17-0.05-0.17-0.15c0-0.09,0.05-0.13,0.16-0.13
			C31.24,38.5,31.3,38.55,31.3,38.64z M31.46,39.3c-0.07,0-0.16,0.06-0.25,0.17c-0.07,0.09-0.13,0.18-0.18,0.28h0.44
			c0.08,0,0.13-0.07,0.13-0.21C31.6,39.38,31.55,39.3,31.46,39.3z"/>
		<path style="fill:#FFFFFF;" d="M33.04,39.97h-1.13v-0.22h0.32c-0.05-0.11-0.07-0.2-0.07-0.29c0-0.09,0.02-0.16,0.07-0.23
			c0.05-0.07,0.11-0.11,0.2-0.13c0.06-0.02,0.12-0.02,0.19-0.02c0.12,0,0.24,0.06,0.35,0.17l-0.11,0.17
			c-0.12-0.09-0.22-0.13-0.3-0.13c-0.12,0-0.18,0.07-0.18,0.22c0,0.06,0.01,0.12,0.04,0.17c0.03,0.06,0.08,0.09,0.14,0.09h0.45
			L33.04,39.97z"/>
		<path style="fill:#FFFFFF;" d="M33.56,39.97h-0.22v-1.44h0.22V39.97z"/>
	</g>
</g>
<g>
	<g>
		<path style="fill:#FFFFFF;" d="M9.1,25.69H8.07v1.03H7.69v-1.03H6.67V25.3h1.03v-1.03h0.38v1.03H9.1V25.69z"/>
		<path style="fill:#FFFFFF;" d="M10.46,26.66h-0.39v-1.22c0-0.41-0.06-0.82-0.19-1.24l0.38-0.12l0.14,0.53
			c0,0.01,0.01,0.06,0.02,0.14c0.03,0.24,0.04,0.47,0.04,0.69V26.66z"/>
		<path style="fill:#FFFFFF;" d="M13.1,25.52c0,0.17-0.07,0.33-0.22,0.46c-0.15,0.13-0.31,0.2-0.49,0.2c-0.18,0-0.35-0.07-0.49-0.2
			c-0.15-0.13-0.22-0.29-0.22-0.47c0-0.19,0.07-0.35,0.22-0.49c0.15-0.14,0.31-0.22,0.5-0.22c0.18,0,0.34,0.08,0.48,0.23
			C13.03,25.17,13.1,25.34,13.1,25.52z M12.78,25.51c0-0.1-0.04-0.2-0.12-0.27c-0.08-0.08-0.17-0.12-0.28-0.12
			c-0.1,0-0.2,0.04-0.27,0.12c-0.08,0.08-0.12,0.18-0.12,0.28c0,0.1,0.04,0.19,0.13,0.26c0.08,0.07,0.18,0.1,0.28,0.1
			c0.1,0,0.19-0.04,0.26-0.11C12.74,25.69,12.78,25.6,12.78,25.51z"/>
		<path style="fill:#FFFFFF;" d="M15.32,25.52c0,0.17-0.07,0.33-0.22,0.46c-0.15,0.13-0.31,0.2-0.49,0.2c-0.18,0-0.35-0.07-0.49-0.2
			c-0.15-0.13-0.22-0.29-0.22-0.47c0-0.19,0.07-0.35,0.22-0.49c0.15-0.14,0.31-0.22,0.5-0.22c0.18,0,0.34,0.08,0.48,0.23
			C15.25,25.17,15.32,25.34,15.32,25.52z M15,25.51c0-0.1-0.04-0.2-0.12-0.27c-0.08-0.08-0.17-0.12-0.28-0.12
			c-0.1,0-0.2,0.04-0.27,0.12c-0.08,0.08-0.12,0.18-0.12,0.28c0,0.1,0.04,0.19,0.13,0.26c0.08,0.07,0.18,0.1,0.28,0.1
			c0.1,0,0.19-0.04,0.26-0.11C14.96,25.69,15,25.6,15,25.51z"/>
		<path style="fill:#FFFFFF;" d="M17.54,25.52c0,0.17-0.07,0.33-0.22,0.46c-0.15,0.13-0.31,0.2-0.49,0.2c-0.18,0-0.35-0.07-0.49-0.2
			c-0.15-0.13-0.22-0.29-0.22-0.47c0-0.19,0.07-0.35,0.22-0.49c0.15-0.14,0.31-0.22,0.5-0.22c0.18,0,0.34,0.08,0.48,0.23
			C17.47,25.17,17.54,25.34,17.54,25.52z M17.22,25.51c0-0.1-0.04-0.2-0.12-0.27c-0.08-0.08-0.17-0.12-0.28-0.12
			c-0.1,0-0.2,0.04-0.27,0.12c-0.08,0.08-0.12,0.18-0.12,0.28c0,0.1,0.04,0.19,0.13,0.26c0.08,0.07,0.18,0.1,0.28,0.1
			c0.1,0,0.19-0.04,0.26-0.11C17.18,25.69,17.22,25.6,17.22,25.51z"/>
	</g>
</g>
<g>
	<g>
		<path style="fill:#FFFFFF;" d="M10.44,29.83c0,0.09-0.03,0.18-0.09,0.25c-0.06,0.08-0.14,0.11-0.23,0.11H8.94
			c-0.09,0-0.17-0.04-0.23-0.11c-0.06-0.07-0.09-0.15-0.09-0.25V29.5h0.22v0.31c0,0.06,0.01,0.11,0.04,0.13
			c0.02,0.03,0.07,0.04,0.13,0.04h1.04c0.06,0,0.1-0.01,0.13-0.04c0.02-0.03,0.04-0.07,0.04-0.13V29.5h0.22V29.83z M9.42,29.12
			c0,0.04-0.01,0.07-0.04,0.1c-0.03,0.03-0.06,0.04-0.1,0.04c-0.1,0-0.16-0.04-0.16-0.13c0-0.08,0.05-0.12,0.14-0.12
			C9.37,29,9.42,29.04,9.42,29.12z M9.85,29.12c0,0.04-0.01,0.07-0.04,0.1s-0.06,0.04-0.1,0.04c-0.1,0-0.15-0.04-0.15-0.13
			C9.55,29.04,9.6,29,9.69,29C9.8,29,9.85,29.04,9.85,29.12z"/>
		<path style="fill:#FFFFFF;" d="M11.67,29.85c0,0.11-0.03,0.19-0.1,0.25c-0.06,0.06-0.15,0.09-0.26,0.09h-0.21
			c-0.29,0-0.43-0.11-0.43-0.34v-1.09h0.22v0.99c0,0.09,0.01,0.15,0.04,0.18c0.03,0.03,0.08,0.04,0.17,0.04h0.2
			c0.06,0,0.11-0.02,0.13-0.05c0.01-0.02,0.02-0.07,0.02-0.16v-0.99h0.22V29.85z"/>
		<path style="fill:#FFFFFF;" d="M12.95,30.19h-0.15c0,0.16-0.05,0.3-0.16,0.4c-0.11,0.11-0.25,0.16-0.41,0.16h-0.29l-0.03-0.22
			h0.28c0.11,0,0.19-0.03,0.26-0.09c0.07-0.06,0.11-0.14,0.11-0.25c-0.18,0-0.32-0.03-0.41-0.08C12.05,30.05,12,29.93,12,29.76
			c0-0.19,0.04-0.32,0.13-0.39c0.05-0.04,0.14-0.07,0.26-0.07c0.18,0,0.3,0.07,0.36,0.22c0.03,0.09,0.05,0.23,0.06,0.45h0.15V30.19z
			 M12.58,29.97v-0.21c0-0.06-0.01-0.11-0.04-0.16c-0.03-0.05-0.08-0.08-0.14-0.08c-0.07,0-0.12,0.02-0.14,0.07
			c-0.02,0.03-0.03,0.09-0.03,0.17c0,0.09,0.04,0.15,0.12,0.18C12.39,29.96,12.46,29.97,12.58,29.97z"/>
		<path style="fill:#FFFFFF;" d="M14.89,30.19h-1.13c-0.15,0-0.26-0.06-0.32-0.18c-0.09,0.12-0.19,0.18-0.3,0.18h-0.27v-0.22h0.25
			c0.1,0,0.16-0.06,0.16-0.17V29.5h0.22v0.29c0,0.13,0.07,0.19,0.21,0.19c0.17-0.44,0.38-0.67,0.61-0.67c0.06,0,0.12,0.02,0.18,0.05
			c0.14,0.08,0.21,0.22,0.21,0.41c0,0.06-0.01,0.13-0.04,0.21h0.21V30.19z M14.49,29.76c0-0.1-0.02-0.17-0.07-0.21
			c-0.02-0.02-0.04-0.02-0.07-0.02c-0.13,0-0.27,0.15-0.43,0.45h0.44C14.45,29.97,14.49,29.9,14.49,29.76z"/>
		<path style="fill:#FFFFFF;" d="M16.16,30.19c-0.2,0-0.32-0.05-0.35-0.15c0-0.02-0.01-0.04-0.02-0.06l-0.01-0.05
			c-0.2,0.12-0.36,0.2-0.47,0.22c-0.09,0.02-0.26,0.03-0.52,0.04v-0.22h0.18c0.16,0,0.31-0.03,0.45-0.1
			c0.04-0.02,0.18-0.09,0.41-0.23c-0.03-0.06-0.08-0.09-0.15-0.11c-0.01,0-0.06-0.01-0.14-0.01c-0.04,0-0.19,0-0.44-0.01l-0.03-0.22
			h0.55c0.3,0,0.45,0.15,0.45,0.46l-0.21,0.11c0,0.06,0.09,0.09,0.28,0.09V30.19z"/>
		<path style="fill:#FFFFFF;" d="M17.09,29.78c0,0.13-0.03,0.23-0.09,0.31c-0.07,0.09-0.17,0.13-0.29,0.13
			c-0.09,0-0.18-0.03-0.25-0.08c-0.07,0.03-0.2,0.05-0.38,0.05v-0.22c0.13,0,0.2-0.01,0.22-0.04c0.01-0.01,0.01-0.06,0.01-0.17
			c0.01-0.31,0.14-0.46,0.4-0.46c0.12,0,0.22,0.05,0.29,0.15C17.06,29.54,17.09,29.65,17.09,29.78z M16.9,29.76
			c0-0.16-0.06-0.24-0.19-0.24c-0.13,0-0.19,0.08-0.19,0.25c0,0.15,0.06,0.23,0.19,0.23C16.83,30,16.9,29.92,16.9,29.76z"/>
	</g>
</g>
<g>
	<g>
		<path style="fill:#FFFFFF;" d="M29.09,16.28h-1.02v1.01H27.7v-1.01h-1.01V15.9h1.01v-1.01h0.37v1.01h1.02V16.28z"/>
		<path style="fill:#FFFFFF;" d="M30.92,15.41c0,0.15-0.06,0.27-0.19,0.37c-0.12,0.1-0.26,0.14-0.4,0.14
			c-0.11,0-0.23-0.04-0.37-0.13l0.01,1.45h-0.4v-1.15c0-0.52-0.06-0.95-0.19-1.29l0.38-0.12l0.16,0.65
			c0.04,0.17,0.14,0.25,0.29,0.25c0.11,0,0.19-0.04,0.25-0.13c0.04-0.06,0.06-0.12,0.05-0.18l-0.06-0.47
			c0.08-0.03,0.2-0.06,0.36-0.12C30.88,15.04,30.92,15.28,30.92,15.41z"/>
		<path style="fill:#FFFFFF;" d="M33.05,16.11c0,0.17-0.07,0.32-0.22,0.45s-0.31,0.19-0.48,0.19c-0.18,0-0.34-0.06-0.49-0.19
			c-0.14-0.13-0.22-0.28-0.22-0.46c0-0.18,0.07-0.35,0.22-0.49s0.31-0.21,0.5-0.21c0.18,0,0.34,0.07,0.48,0.22
			S33.05,15.93,33.05,16.11z M32.73,16.1c0-0.1-0.04-0.19-0.12-0.27c-0.08-0.08-0.17-0.12-0.28-0.12c-0.1,0-0.19,0.04-0.27,0.12
			c-0.08,0.08-0.12,0.17-0.12,0.28c0,0.1,0.04,0.19,0.13,0.26c0.08,0.07,0.17,0.1,0.28,0.1c0.1,0,0.18-0.04,0.26-0.11
			S32.73,16.2,32.73,16.1z"/>
		<path style="fill:#FFFFFF;" d="M35.24,16.11c0,0.17-0.07,0.32-0.22,0.45s-0.31,0.19-0.48,0.19c-0.18,0-0.34-0.06-0.49-0.19
			c-0.14-0.13-0.22-0.28-0.22-0.46c0-0.18,0.07-0.35,0.22-0.49s0.31-0.21,0.5-0.21c0.18,0,0.34,0.07,0.48,0.22
			S35.24,15.93,35.24,16.11z M34.92,16.1c0-0.1-0.04-0.19-0.12-0.27c-0.08-0.08-0.17-0.12-0.28-0.12c-0.1,0-0.19,0.04-0.27,0.12
			c-0.08,0.08-0.12,0.17-0.12,0.28c0,0.1,0.04,0.19,0.13,0.26c0.08,0.07,0.17,0.1,0.28,0.1c0.1,0,0.18-0.04,0.26-0.11
			S34.92,16.2,34.92,16.1z"/>
		<path style="fill:#FFFFFF;" d="M37.44,16.11c0,0.17-0.07,0.32-0.22,0.45s-0.31,0.19-0.48,0.19c-0.18,0-0.34-0.06-0.49-0.19
			c-0.14-0.13-0.22-0.28-0.22-0.46c0-0.18,0.07-0.35,0.22-0.49s0.31-0.21,0.5-0.21c0.18,0,0.34,0.07,0.48,0.22
			S37.44,15.93,37.44,16.11z M37.12,16.1c0-0.1-0.04-0.19-0.12-0.27c-0.08-0.08-0.17-0.12-0.28-0.12c-0.1,0-0.19,0.04-0.27,0.12
			c-0.08,0.08-0.12,0.17-0.12,0.28c0,0.1,0.04,0.19,0.13,0.26c0.08,0.07,0.17,0.1,0.28,0.1c0.1,0,0.18-0.04,0.26-0.11
			S37.12,16.2,37.12,16.1z"/>
		<path style="fill:#FFFFFF;" d="M39.63,16.11c0,0.17-0.07,0.32-0.22,0.45s-0.31,0.19-0.48,0.19c-0.18,0-0.34-0.06-0.49-0.19
			c-0.14-0.13-0.22-0.28-0.22-0.46c0-0.18,0.07-0.35,0.22-0.49s0.31-0.21,0.5-0.21c0.18,0,0.34,0.07,0.48,0.22
			S39.63,15.93,39.63,16.11z M39.32,16.1c0-0.1-0.04-0.19-0.12-0.27c-0.08-0.08-0.17-0.12-0.28-0.12c-0.1,0-0.19,0.04-0.27,0.12
			c-0.08,0.08-0.12,0.17-0.12,0.28c0,0.1,0.04,0.19,0.13,0.26c0.08,0.07,0.17,0.1,0.28,0.1c0.1,0,0.18-0.04,0.26-0.11
			S39.32,16.2,39.32,16.1z"/>
	</g>
</g>
</svg>
